<svg width="1152" height="39" viewBox="0 0 1152 39" fill="none" xmlns="http://www.w3.org/2000/svg">
<path d="M2.02273 31V7.72727H11.2045C12.9697 7.72727 14.4735 8.06439 15.7159 8.73864C16.9583 9.4053 17.9053 10.3333 18.5568 11.5227C19.2159 12.7045 19.5455 14.0682 19.5455 15.6136C19.5455 17.1591 19.2121 18.5227 18.5455 19.7045C17.8788 20.8864 16.9129 21.8068 15.6477 22.4659C14.3902 23.125 12.8674 23.4545 11.0795 23.4545H5.22727V19.5114H10.2841C11.2311 19.5114 12.0114 19.3485 12.625 19.0227C13.2462 18.6894 13.7083 18.2311 14.0114 17.6477C14.322 17.0568 14.4773 16.3788 14.4773 15.6136C14.4773 14.8409 14.322 14.1667 14.0114 13.5909C13.7083 13.0076 13.2462 12.5568 12.625 12.2386C12.0038 11.9129 11.2159 11.75 10.2614 11.75H6.94318V31H2.02273ZM30.3239 31.3409C28.5284 31.3409 26.983 30.9773 25.6875 30.25C24.3996 29.5152 23.4072 28.4773 22.7102 27.1364C22.0133 25.7879 21.6648 24.1932 21.6648 22.3523C21.6648 20.5568 22.0133 18.9811 22.7102 17.625C23.4072 16.2689 24.3883 15.2121 25.6534 14.4545C26.9261 13.697 28.4186 13.3182 30.1307 13.3182C31.2822 13.3182 32.3542 13.5038 33.3466 13.875C34.3466 14.2386 35.2178 14.7879 35.9602 15.5227C36.7102 16.2576 37.2936 17.1818 37.7102 18.2955C38.1269 19.4015 38.3352 20.697 38.3352 22.1818V23.5114H23.5966V20.5114H33.7784C33.7784 19.8144 33.6269 19.197 33.3239 18.6591C33.0208 18.1212 32.6004 17.7008 32.0625 17.3977C31.5322 17.0871 30.9148 16.9318 30.2102 16.9318C29.4754 16.9318 28.8239 17.1023 28.2557 17.4432C27.6951 17.7765 27.2557 18.2273 26.9375 18.7955C26.6193 19.3561 26.4564 19.9811 26.4489 20.6705V23.5227C26.4489 24.3864 26.608 25.1326 26.9261 25.7614C27.2519 26.3902 27.7102 26.875 28.3011 27.2159C28.892 27.5568 29.5928 27.7273 30.4034 27.7273C30.9413 27.7273 31.4337 27.6515 31.8807 27.5C32.3277 27.3485 32.7102 27.1212 33.0284 26.8182C33.3466 26.5152 33.589 26.1439 33.7557 25.7045L38.233 26C38.0057 27.0758 37.5398 28.0152 36.8352 28.8182C36.1383 29.6136 35.2367 30.2348 34.1307 30.6818C33.0322 31.1212 31.7633 31.3409 30.3239 31.3409ZM50.7784 13.5455V17.1818H40.267V13.5455H50.7784ZM42.6534 9.36364H47.4943V25.6364C47.4943 26.0833 47.5625 26.4318 47.6989 26.6818C47.8352 26.9242 48.0246 27.0947 48.267 27.1932C48.517 27.2917 48.8049 27.3409 49.1307 27.3409C49.358 27.3409 49.5852 27.322 49.8125 27.2841C50.0398 27.2386 50.214 27.2045 50.3352 27.1818L51.0966 30.7841C50.8542 30.8598 50.5133 30.947 50.0739 31.0455C49.6345 31.1515 49.1004 31.2159 48.4716 31.2386C47.3049 31.2841 46.2822 31.1288 45.4034 30.7727C44.5322 30.4167 43.8542 29.8636 43.3693 29.1136C42.8845 28.3636 42.6458 27.4167 42.6534 26.2727V9.36364ZM74.054 14.4205C73.9631 13.5038 73.5729 12.7917 72.8835 12.2841C72.1941 11.7765 71.2585 11.5227 70.0767 11.5227C69.2737 11.5227 68.5956 11.6364 68.0426 11.8636C67.4896 12.0833 67.0653 12.3902 66.7699 12.7841C66.482 13.178 66.3381 13.625 66.3381 14.125C66.3229 14.5417 66.41 14.9053 66.5994 15.2159C66.7964 15.5265 67.0653 15.7955 67.4062 16.0227C67.7472 16.2424 68.1411 16.4356 68.5881 16.6023C69.035 16.7614 69.5123 16.8977 70.0199 17.0114L72.1108 17.5114C73.1259 17.7386 74.0578 18.0417 74.9062 18.4205C75.7547 18.7992 76.4896 19.2652 77.1108 19.8182C77.732 20.3712 78.2131 21.0227 78.554 21.7727C78.9025 22.5227 79.0805 23.3826 79.0881 24.3523C79.0805 25.7765 78.7169 27.0114 77.9972 28.0568C77.285 29.0947 76.2547 29.9015 74.9062 30.4773C73.5653 31.0455 71.9479 31.3295 70.054 31.3295C68.1752 31.3295 66.5388 31.0417 65.1449 30.4659C63.7585 29.8902 62.6752 29.0379 61.8949 27.9091C61.1222 26.7727 60.7169 25.3674 60.679 23.6932H65.4403C65.4934 24.4735 65.7169 25.125 66.1108 25.6477C66.5123 26.1629 67.0464 26.553 67.7131 26.8182C68.3873 27.0758 69.1487 27.2045 69.9972 27.2045C70.8305 27.2045 71.554 27.0833 72.1676 26.8409C72.7888 26.5985 73.2699 26.2614 73.6108 25.8295C73.9517 25.3977 74.1222 24.9015 74.1222 24.3409C74.1222 23.8182 73.9669 23.3788 73.6562 23.0227C73.3532 22.6667 72.9063 22.3636 72.3153 22.1136C71.732 21.8636 71.0161 21.6364 70.1676 21.4318L67.6335 20.7955C65.6714 20.3182 64.1222 19.572 62.9858 18.5568C61.8494 17.5417 61.285 16.1742 61.2926 14.4545C61.285 13.0455 61.66 11.8144 62.4176 10.7614C63.1828 9.70833 64.232 8.88636 65.5653 8.29545C66.8987 7.70454 68.4138 7.40909 70.1108 7.40909C71.8381 7.40909 73.3456 7.70454 74.6335 8.29545C75.929 8.88636 76.9366 9.70833 77.6562 10.7614C78.3759 11.8144 78.7472 13.0341 78.7699 14.4205H74.054ZM91.5909 13.5455V17.1818H81.0795V13.5455H91.5909ZM83.4659 9.36364H88.3068V25.6364C88.3068 26.0833 88.375 26.4318 88.5114 26.6818C88.6477 26.9242 88.8371 27.0947 89.0795 27.1932C89.3295 27.2917 89.6174 27.3409 89.9432 27.3409C90.1705 27.3409 90.3977 27.322 90.625 27.2841C90.8523 27.2386 91.0265 27.2045 91.1477 27.1818L91.9091 30.7841C91.6667 30.8598 91.3258 30.947 90.8864 31.0455C90.447 31.1515 89.9129 31.2159 89.2841 31.2386C88.1174 31.2841 87.0947 31.1288 86.2159 30.7727C85.3447 30.4167 84.6667 29.8636 84.1818 29.1136C83.697 28.3636 83.4583 27.4167 83.4659 26.2727V9.36364ZM102.443 31.3409C100.678 31.3409 99.1515 30.9659 97.8636 30.2159C96.5833 29.4583 95.5947 28.4053 94.8977 27.0568C94.2008 25.7008 93.8523 24.1288 93.8523 22.3409C93.8523 20.5379 94.2008 18.9621 94.8977 17.6136C95.5947 16.2576 96.5833 15.2045 97.8636 14.4545C99.1515 13.697 100.678 13.3182 102.443 13.3182C104.208 13.3182 105.731 13.697 107.011 14.4545C108.299 15.2045 109.292 16.2576 109.989 17.6136C110.686 18.9621 111.034 20.5379 111.034 22.3409C111.034 24.1288 110.686 25.7008 109.989 27.0568C109.292 28.4053 108.299 29.4583 107.011 30.2159C105.731 30.9659 104.208 31.3409 102.443 31.3409ZM102.466 27.5909C103.269 27.5909 103.939 27.3636 104.477 26.9091C105.015 26.447 105.42 25.8182 105.693 25.0227C105.973 24.2273 106.114 23.322 106.114 22.3068C106.114 21.2917 105.973 20.3864 105.693 19.5909C105.42 18.7955 105.015 18.1667 104.477 17.7045C103.939 17.2424 103.269 17.0114 102.466 17.0114C101.655 17.0114 100.973 17.2424 100.42 17.7045C99.875 18.1667 99.4621 18.7955 99.1818 19.5909C98.9091 20.3864 98.7727 21.2917 98.7727 22.3068C98.7727 23.322 98.9091 24.2273 99.1818 25.0227C99.4621 25.8182 99.875 26.447 100.42 26.9091C100.973 27.3636 101.655 27.5909 102.466 27.5909ZM114.182 31V13.5455H118.875V16.5909H119.057C119.375 15.5076 119.909 14.6894 120.659 14.1364C121.409 13.5758 122.273 13.2955 123.25 13.2955C123.492 13.2955 123.754 13.3106 124.034 13.3409C124.314 13.3712 124.561 13.4129 124.773 13.4659V17.7614C124.545 17.6932 124.231 17.6326 123.83 17.5795C123.428 17.5265 123.061 17.5 122.727 17.5C122.015 17.5 121.379 17.6553 120.818 17.9659C120.265 18.2689 119.826 18.6932 119.5 19.2386C119.182 19.7841 119.023 20.4129 119.023 21.125V31H114.182ZM134.418 31.3409C132.622 31.3409 131.077 30.9773 129.781 30.25C128.493 29.5152 127.501 28.4773 126.804 27.1364C126.107 25.7879 125.759 24.1932 125.759 22.3523C125.759 20.5568 126.107 18.9811 126.804 17.625C127.501 16.2689 128.482 15.2121 129.747 14.4545C131.02 13.697 132.512 13.3182 134.224 13.3182C135.376 13.3182 136.448 13.5038 137.44 13.875C138.44 14.2386 139.312 14.7879 140.054 15.5227C140.804 16.2576 141.387 17.1818 141.804 18.2955C142.221 19.4015 142.429 20.697 142.429 22.1818V23.5114H127.69V20.5114H137.872C137.872 19.8144 137.721 19.197 137.418 18.6591C137.115 18.1212 136.694 17.7008 136.156 17.3977C135.626 17.0871 135.009 16.9318 134.304 16.9318C133.569 16.9318 132.918 17.1023 132.349 17.4432C131.789 17.7765 131.349 18.2273 131.031 18.7955C130.713 19.3561 130.55 19.9811 130.543 20.6705V23.5227C130.543 24.3864 130.702 25.1326 131.02 25.7614C131.346 26.3902 131.804 26.875 132.395 27.2159C132.986 27.5568 133.687 27.7273 134.497 27.7273C135.035 27.7273 135.527 27.6515 135.974 27.5C136.421 27.3485 136.804 27.1212 137.122 26.8182C137.44 26.5152 137.683 26.1439 137.849 25.7045L142.327 26C142.099 27.0758 141.634 28.0152 140.929 28.8182C140.232 29.6136 139.33 30.2348 138.224 30.6818C137.126 31.1212 135.857 31.3409 134.418 31.3409ZM160.111 18.5227L155.679 18.7955C155.603 18.4167 155.44 18.0758 155.19 17.7727C154.94 17.4621 154.611 17.2159 154.202 17.0341C153.8 16.8447 153.319 16.75 152.759 16.75C152.009 16.75 151.376 16.9091 150.861 17.2273C150.346 17.5379 150.088 17.9545 150.088 18.4773C150.088 18.8939 150.255 19.2462 150.588 19.5341C150.921 19.822 151.493 20.053 152.304 20.2273L155.463 20.8636C157.16 21.2121 158.425 21.7727 159.259 22.5455C160.092 23.3182 160.509 24.3333 160.509 25.5909C160.509 26.7348 160.171 27.7386 159.497 28.6023C158.83 29.4659 157.914 30.1402 156.747 30.625C155.588 31.1023 154.251 31.3409 152.736 31.3409C150.425 31.3409 148.584 30.8598 147.213 29.8977C145.849 28.928 145.05 27.6098 144.815 25.9432L149.577 25.6932C149.721 26.3977 150.069 26.9356 150.622 27.3068C151.175 27.6705 151.884 27.8523 152.747 27.8523C153.596 27.8523 154.277 27.6894 154.793 27.3636C155.315 27.0303 155.58 26.6023 155.588 26.0795C155.58 25.6402 155.395 25.2803 155.031 25C154.668 24.7121 154.107 24.4924 153.349 24.3409L150.327 23.7386C148.622 23.3977 147.353 22.8068 146.52 21.9659C145.694 21.125 145.281 20.053 145.281 18.75C145.281 17.6288 145.584 16.6629 146.19 15.8523C146.804 15.0417 147.664 14.4167 148.77 13.9773C149.884 13.5379 151.187 13.3182 152.679 13.3182C154.884 13.3182 156.618 13.7841 157.884 14.7159C159.156 15.6477 159.899 16.9167 160.111 18.5227Z" fill="black"/>
<path d="M1087.37 14.3182L1090.02 22.3324H1090.12L1092.77 14.3182H1094.79L1091.2 24.5H1088.93L1085.34 14.3182H1087.37ZM1096.06 24.5V16.8636H1097.86V24.5H1096.06ZM1096.96 15.7798C1096.68 15.7798 1096.43 15.6854 1096.22 15.4964C1096.02 15.3042 1095.92 15.0739 1095.92 14.8054C1095.92 14.5336 1096.02 14.3033 1096.22 14.1143C1096.43 13.9221 1096.68 13.826 1096.96 13.826C1097.25 13.826 1097.49 13.9221 1097.7 14.1143C1097.9 14.3033 1098 14.5336 1098 14.8054C1098 15.0739 1097.9 15.3042 1097.7 15.4964C1097.49 15.6854 1097.25 15.7798 1096.96 15.7798ZM1103.09 24.6491C1102.32 24.6491 1101.66 24.4901 1101.1 24.1719C1100.55 23.8504 1100.12 23.3963 1099.83 22.8097C1099.53 22.2197 1099.38 21.5253 1099.38 20.7266C1099.38 19.9411 1099.53 19.2517 1099.83 18.6584C1100.13 18.0618 1100.55 17.5978 1101.09 17.2663C1101.63 16.9316 1102.26 16.7642 1102.99 16.7642C1103.46 16.7642 1103.91 16.8404 1104.32 16.9929C1104.75 17.142 1105.12 17.3741 1105.44 17.6889C1105.76 18.0038 1106.02 18.4048 1106.2 18.892C1106.39 19.3759 1106.48 19.9527 1106.48 20.6222V21.174H1100.22V19.9609H1104.76C1104.75 19.6162 1104.68 19.3097 1104.53 19.0412C1104.39 18.7694 1104.18 18.5556 1103.92 18.3999C1103.66 18.2441 1103.36 18.1662 1103.02 18.1662C1102.65 18.1662 1102.33 18.2557 1102.05 18.4347C1101.77 18.6103 1101.55 18.8423 1101.4 19.1307C1101.24 19.4157 1101.17 19.7289 1101.16 20.0703V21.1293C1101.16 21.5734 1101.24 21.9545 1101.41 22.2727C1101.57 22.5876 1101.8 22.8295 1102.09 22.9986C1102.38 23.1643 1102.72 23.2472 1103.11 23.2472C1103.37 23.2472 1103.61 23.2107 1103.82 23.1378C1104.03 23.0616 1104.22 22.9505 1104.37 22.8047C1104.53 22.6589 1104.65 22.4782 1104.73 22.2628L1106.41 22.4517C1106.3 22.8958 1106.1 23.2836 1105.8 23.6151C1105.51 23.9432 1105.13 24.1984 1104.67 24.3807C1104.21 24.5597 1103.68 24.6491 1103.09 24.6491ZM1109.54 24.5L1107.38 16.8636H1109.22L1110.56 22.233H1110.63L1112 16.8636H1113.82L1115.19 22.2031H1115.26L1116.58 16.8636H1118.42L1116.26 24.5H1114.39L1112.96 19.3395H1112.85L1111.42 24.5H1109.54ZM1124.54 24.5H1122.57L1126.16 14.3182H1128.43L1132.02 24.5H1130.05L1127.33 16.4062H1127.25L1124.54 24.5ZM1124.6 20.5078H1129.97V21.9893H1124.6V20.5078ZM1135.08 14.3182V24.5H1133.28V14.3182H1135.08ZM1138.73 14.3182V24.5H1136.93V14.3182H1138.73Z" fill="#6610F2"/>
</svg>
